<svg width="793" height="793" viewBox="0 0 793 793" fill="none" xmlns="http://www.w3.org/2000/svg">
<g clip-path="url(#clip0_159_10)">
<path d="M351.968 789.929C340.192 788.524 327.841 786.711 324.53 785.894C319.658 784.739 314.758 783.708 309.834 782.8C304.21 781.71 298.63 780.403 293.107 778.883C267.458 771.532 265.62 770.931 246.282 763.023C228.492 755.771 195.714 738.828 184.501 731.117C181.432 728.989 178.56 727.275 178.121 727.275C177.688 727.275 170.51 722.225 162.168 716.056C109.137 676.805 69.323 629.157 40.5548 570.47C35.6043 560.389 31.5635 551.448 31.5635 550.606C31.5635 549.777 30.6725 547.481 29.5834 545.551C27.3371 541.534 24.1379 532.884 21.5575 523.942C20.448 520.143 19.1573 516.399 17.6899 512.723C16.4833 509.876 15.5117 506.411 15.5117 505.013C15.5117 503.608 14.3051 499.041 12.8323 494.833C11.3596 490.656 10.1715 485.724 10.1715 483.88C10.1715 482.049 9.0143 475.712 7.58487 469.796C4.10719 455.193 0.406738 417.365 0.406738 396.165C0.406738 374.989 4.10719 337.162 7.58487 322.564C9.00812 316.642 10.1715 310.188 10.1715 308.208C10.1715 306.222 11.0687 302.33 12.1516 299.545C13.2655 296.773 14.6887 291.791 15.3447 288.481C16.0254 285.17 17.5724 279.465 18.8285 275.764L22.4795 265.084C25.1589 257.083 27.6465 250.313 28.8346 247.677C29.5153 246.204 32.17 240.189 34.7566 234.311C38.9397 224.812 47.9061 206.898 53.1474 197.523C55.0595 194.088 55.7835 192.95 66.1299 176.78C82.5221 151.112 110.535 119.176 136.612 96.4101C145.801 88.3842 176.5 65.08 177.88 65.08C178.263 65.08 181.159 63.3412 184.334 61.2125C192.669 55.6309 200.844 50.8908 211.499 45.5505C215.324 43.6588 219.112 41.6927 222.861 39.6533C224.624 38.6385 227.935 37.1162 244.933 29.5049C248.677 27.8342 252.712 26.3119 264.339 22.2464C266.901 21.3553 272.049 19.4679 275.725 18.088C279.426 16.7143 283.776 15.5757 285.397 15.5757C286.994 15.5757 291.195 14.4618 294.729 13.0881C298.256 11.7081 304.66 10.1364 308.986 9.6042C313.293 9.09678 319.017 7.89012 321.702 6.94335C324.363 6.02752 331.665 4.83941 337.921 4.31343C346.075 3.57676 354.207 2.61725 362.308 1.43599C378.942 -1.0021 415.105 -1.0021 431.565 1.43599C439.339 2.55166 447.141 3.46984 454.962 4.18967C460.859 4.67852 468.377 5.90994 471.688 6.92478C474.999 7.91487 480.729 9.15248 484.404 9.6042C488.08 10.0931 494.268 11.6153 498.154 13.0138C502.053 14.4371 506.471 15.5757 507.993 15.5757C509.515 15.5757 512.659 16.4234 514.955 17.4878C517.275 18.5274 522.182 20.2662 525.883 21.3553C529.559 22.4691 535.864 24.6659 539.93 26.2872C543.964 27.9022 549.379 30.0309 551.965 30.9963C556.73 32.7908 591.94 50.4081 596.73 53.4094C635.597 77.6479 655.59 93.4831 682.471 121.255C714.884 154.757 736.4 186.663 758.3 233.63C759.847 236.947 762.21 241.854 763.566 244.508C764.896 247.194 766.01 250.338 766.01 251.501C766.01 252.677 767.124 256.204 768.497 259.354C772.223 267.912 775.409 277.652 776.913 285.096C777.656 288.747 779.036 293.264 779.976 295.127C780.923 296.983 782.031 301.705 782.47 305.572C782.903 309.433 784.184 315.77 785.273 319.613C791.585 341.463 794.722 405.837 790.904 434.308C789.772 442.767 788.491 452.996 788.058 457.031C787.328 463.943 783.677 481.807 780.558 493.818L777.34 506.535C771.276 531.021 756.288 565.903 737.99 598.174C730.738 610.983 706.425 645.623 701.834 649.683C701.419 650.042 699.365 652.468 697.285 655.023C695.206 657.61 688.536 664.837 682.496 671.075C655.881 698.556 634.415 715.548 596.73 738.952C592.262 741.73 554.36 760.245 547.275 763.122C543.599 764.595 537.461 767.082 533.643 768.629C529.849 770.158 525.617 771.439 524.286 771.464C522.956 771.482 519.453 772.67 516.502 774.093C513.556 775.517 509.806 776.705 508.142 776.73C506.496 776.754 501.688 777.918 497.455 779.316C493.229 780.739 487.35 782.268 484.398 782.72C481.453 783.184 475.147 784.44 470.358 785.504C465.574 786.569 451.113 788.648 438.26 790.12C409.589 793.464 380.624 793.4 351.968 789.929ZM381.07 712.578C382.927 711.13 384.839 708.246 385.346 706.223C386.46 701.749 566.247 341.314 569.632 336.797C572.485 332.979 572.751 326.865 570.14 324.712C568.766 323.554 551.551 323.189 505.598 323.264C471.131 323.338 442.152 323.363 441.206 323.338C439.807 323.288 439.516 300.257 439.659 201.607C439.758 134.671 439.442 79.2939 438.959 78.5266C438.477 77.7469 436.589 77.1219 434.752 77.1219C432.165 77.1219 430.958 78.2358 429.368 82.1219C426.367 89.3495 418.075 105.76 377.71 184.132C369.326 200.396 360.962 216.67 352.618 232.955C345.464 246.953 334.177 268.926 327.575 281.779C309.803 316.328 292.068 350.897 274.37 385.484C243.844 445.112 240.15 452.222 238.838 453.794C236.301 456.863 234.921 463.943 236.351 466.603C237.65 469.042 240.243 469.141 304.685 469.042C341.523 468.998 371.906 469.19 372.221 469.475C373.069 470.347 372.754 700.351 371.881 705.833C371.306 709.435 371.689 711.341 373.335 712.987C376.182 715.839 376.961 715.814 381.07 712.578Z" fill="white"/>
</g>
<defs>
<clipPath id="clip0_159_10">
<rect width="792.069" height="792.069" fill="white" transform="translate(0.406738 0.416016)"/>
</clipPath>
</defs>
</svg>
