<svg width="705" height="705" viewBox="0 0 705 705" fill="none" xmlns="http://www.w3.org/2000/svg">
<g clip-path="url(#clip0_159_4)">
<mask id="mask0_159_4" style="mask-type:luminance" maskUnits="userSpaceOnUse" x="0" y="1" width="704" height="704">
<path d="M0.561035 1.42383H703.242V704.104H0.561035V1.42383Z" fill="white"/>
</mask>
<g mask="url(#mask0_159_4)">
<path d="M690.004 321.474L383.197 14.6899C378.998 10.4844 374.01 7.14812 368.52 4.87181C363.03 2.59549 357.145 1.42383 351.201 1.42383C345.258 1.42383 339.373 2.59549 333.883 4.87181C328.393 7.14812 323.405 10.4844 319.205 14.6899L255.489 78.4066L336.289 159.207C345.789 155.981 356.002 155.477 365.773 157.753C375.543 160.029 384.483 164.993 391.579 172.085C398.713 179.229 403.695 188.235 405.957 198.075C408.219 207.914 407.67 218.191 404.373 227.734L482.244 305.613C491.785 302.298 502.068 301.738 511.912 304C521.756 306.262 530.764 311.252 537.901 318.399C542.901 323.399 546.868 329.334 549.574 335.866C552.28 342.399 553.673 349.4 553.673 356.471C553.673 363.542 552.28 370.543 549.574 377.076C546.868 383.608 542.901 389.544 537.901 394.543C527.798 404.641 514.098 410.314 499.814 410.314C485.529 410.314 471.83 404.641 461.727 394.543C454.207 387.028 449.081 377.454 446.996 367.029C444.911 356.604 445.96 345.795 450.011 335.965L377.363 263.339V454.497C385.031 458.285 391.686 463.845 396.777 470.717C401.868 477.589 405.249 485.575 406.639 494.014C408.03 502.453 407.389 511.101 404.772 519.243C402.154 527.386 397.634 534.787 391.586 540.834C386.587 545.835 380.652 549.801 374.119 552.507C367.587 555.213 360.586 556.606 353.515 556.606C346.444 556.606 339.443 555.213 332.91 552.507C326.378 549.801 320.442 545.835 315.443 540.834C310.442 535.835 306.474 529.899 303.767 523.366C301.061 516.833 299.667 509.83 299.667 502.759C299.667 495.687 301.061 488.685 303.767 482.152C306.474 475.618 310.442 469.683 315.443 464.683C320.487 459.627 326.487 455.627 333.093 452.914V259.998C326.486 257.3 320.485 253.309 315.443 248.259C307.892 240.698 302.758 231.064 300.694 220.58C298.63 210.095 299.728 199.234 303.85 189.375L224.181 109.707L13.8213 320.036C9.6169 324.239 6.28172 329.228 4.00624 334.72C1.73076 340.212 0.55957 346.099 0.55957 352.043C0.55957 357.988 1.73076 363.874 4.00624 369.366C6.28172 374.858 9.6169 379.848 13.8213 384.051L320.636 690.873C329.124 699.353 340.633 704.117 352.632 704.117C364.631 704.117 376.139 699.353 384.627 690.873L690.004 385.489C698.482 376.994 703.244 365.483 703.244 353.481C703.244 341.48 698.482 329.968 690.004 321.474Z" fill="white"/>
</g>
</g>
<defs>
<clipPath id="clip0_159_4">
<rect width="703.545" height="703.545" fill="white" transform="translate(0.561035 0.560547)"/>
</clipPath>
</defs>
</svg>
