<svg width="940" height="1137" viewBox="0 0 940 1137" fill="none" xmlns="http://www.w3.org/2000/svg">
<g clip-path="url(#clip0_159_12)">
<path d="M464.686 0.00776141C425.967 0.18758 388.991 3.48811 356.456 9.24227C260.613 26.1663 243.211 61.5896 243.211 126.916V213.193H469.701V241.952H243.211H158.211C92.3872 241.952 34.7495 281.496 16.7212 356.724C-4.07423 442.951 -4.99662 496.759 16.7212 586.795C32.8209 653.814 71.2692 701.567 137.094 701.567H214.966V598.14C214.966 523.42 279.647 457.512 356.456 457.512H582.682C645.656 457.512 695.927 405.687 695.927 342.476V126.916C695.927 65.5667 644.146 19.4813 582.682 9.24227C543.775 2.76883 503.405 -0.17206 464.686 0.00776141ZM342.202 69.3985C365.596 69.3985 384.702 88.8059 384.702 112.669C384.701 136.447 365.596 155.675 342.202 155.675C318.723 155.675 299.702 136.447 299.702 112.669C299.702 88.8059 318.723 69.3985 342.202 69.3985Z" fill="url(#paint0_linear_159_12)"/>
<path d="M724.173 241.951V342.475C724.173 420.41 658.066 486.006 582.682 486.006H356.456C294.489 486.006 243.211 539.015 243.211 601.042V816.601C243.211 877.951 296.586 914.036 356.456 931.637C428.15 952.707 496.901 956.515 582.682 931.637C639.702 915.136 695.927 881.928 695.927 816.601V730.325H469.701V701.566H695.927H809.173C874.997 701.566 899.526 655.675 922.417 586.794C946.064 515.882 945.058 447.689 922.417 356.723C906.15 291.227 875.081 241.951 809.173 241.951H724.173ZM596.937 787.843C620.416 787.843 639.437 807.071 639.437 830.849C639.437 854.712 620.416 874.119 596.937 874.119C573.542 874.119 554.437 854.712 554.437 830.849C554.437 807.071 573.542 787.843 596.937 787.843Z" fill="url(#paint1_linear_159_12)"/>
<path opacity="0.44382" d="M472.271 1137C639.898 1137 775.787 1110.66 775.787 1078.17C775.787 1045.69 639.898 1019.35 472.271 1019.35C304.644 1019.35 168.756 1045.69 168.756 1078.17C168.756 1110.66 304.644 1137 472.271 1137Z" fill="url(#paint2_radial_159_12)"/>
</g>
<defs>
<linearGradient id="paint0_linear_159_12" x1="0.776853" y1="-2.44982e-06" x2="522.819" y2="445.074" gradientUnits="userSpaceOnUse">
<stop stop-color="#868686"/>
<stop offset="1" stop-color="white"/>
</linearGradient>
<linearGradient id="paint1_linear_159_12" x1="591.494" y1="823.595" x2="404.25" y2="561.08" gradientUnits="userSpaceOnUse">
<stop stop-color="white"/>
<stop offset="1" stop-color="#E8E8E8"/>
</linearGradient>
<radialGradient id="paint2_radial_159_12" cx="0" cy="0" r="1" gradientUnits="userSpaceOnUse" gradientTransform="translate(472.271 1078.17) rotate(-90) scale(58.825 258.689)">
<stop stop-color="#B8B8B8" stop-opacity="0.498039"/>
<stop offset="1" stop-color="#7F7F7F" stop-opacity="0"/>
</radialGradient>
<clipPath id="clip0_159_12">
<rect width="939" height="1137" fill="white" transform="translate(0.776855)"/>
</clipPath>
</defs>
</svg>
