<svg width="1070" height="1070" viewBox="0 0 1070 1070" fill="none" xmlns="http://www.w3.org/2000/svg">
<g clip-path="url(#clip0_159_16)">
<path d="M965.508 0H104.492C46.7827 0 0 46.7827 0 104.492V965.508C0 1023.22 46.7827 1070 104.492 1070H965.508C1023.22 1070 1070 1023.22 1070 965.508V104.492C1070 46.7827 1023.22 0 965.508 0Z" fill="white"/>
<path d="M965.508 0H104.492C46.7827 0 0 46.7827 0 104.492V965.508C0 1023.22 46.7827 1070 104.492 1070H965.508C1023.22 1070 1070 1023.22 1070 965.508V104.492C1070 46.7827 1023.22 0 965.508 0Z" fill="white"/>
<path fill-rule="evenodd" clip-rule="evenodd" d="M662.353 851.453V956.072C679.36 964.791 699.475 971.328 722.697 975.687C745.92 980.047 770.394 982.227 796.124 982.227C821.2 982.227 845.02 979.83 867.588 975.033C890.156 970.239 909.945 962.338 926.952 951.33C943.959 940.325 957.424 925.939 967.345 908.175C977.265 890.411 982.227 868.453 982.227 842.299C982.227 823.336 979.393 806.717 973.723 792.442C968.053 778.166 959.878 765.47 949.192 754.354C938.509 743.238 925.698 733.266 910.762 724.438C895.826 715.611 878.982 707.274 860.23 699.429C846.493 693.761 834.174 688.259 823.271 682.919C812.368 677.577 803.102 672.129 795.47 666.572C787.838 661.013 781.951 655.128 777.808 648.917C773.666 642.704 771.593 635.676 771.593 627.829C771.593 620.638 773.447 614.153 777.154 608.376C780.862 602.6 786.095 597.643 792.853 593.501C799.614 589.361 807.898 586.145 817.71 583.856C827.524 581.568 838.424 580.425 850.418 580.425C859.139 580.425 868.351 581.079 878.054 582.385C887.757 583.693 897.515 585.71 907.329 588.433C917.14 591.158 926.679 594.592 935.947 598.732C945.213 602.874 953.771 607.668 961.621 613.118V515.364C945.704 509.261 928.315 504.739 909.454 501.797C890.593 498.854 868.951 497.383 844.531 497.383C819.672 497.383 796.124 500.054 773.884 505.393C751.644 510.733 732.074 519.069 715.174 530.402C698.275 541.738 684.921 556.176 675.109 573.723C665.298 591.267 660.391 612.245 660.391 636.656C660.391 667.824 669.385 694.415 687.375 716.43C705.362 738.442 732.672 757.077 769.305 772.335C783.696 778.22 797.106 783.994 809.534 789.662C821.963 795.33 832.702 801.215 841.749 807.317C850.798 813.419 857.939 820.067 863.174 827.26C868.407 834.452 871.024 842.625 871.024 851.781C871.024 858.537 869.388 864.802 866.117 870.579C862.846 876.355 857.885 881.367 851.235 885.617C844.585 889.868 836.299 893.191 826.379 895.588C816.456 897.987 804.847 899.185 791.545 899.185C768.868 899.185 746.411 895.208 724.168 887.251C701.928 879.298 681.322 867.365 662.353 851.453ZM486.474 593.687H620.684V507.832H246.602V593.687H380.155V975.957H486.474V593.687Z" fill="#183132" fill-opacity="0.3"/>
</g>
<defs>
<clipPath id="clip0_159_16">
<rect width="1070" height="1070" fill="white"/>
</clipPath>
</defs>
</svg>
