<svg width="2989" height="360" viewBox="0 0 2989 360" fill="none" xmlns="http://www.w3.org/2000/svg">
<path d="M177.905 250.368C163.939 250.368 150.106 253.12 137.204 258.464C124.304 263.808 112.582 271.639 102.708 281.512C92.8333 291.387 84.9977 303.113 79.6535 316.015C74.3098 328.916 71.5575 342.744 71.5573 356.708H0.666016C0.66624 333.434 5.2506 310.384 14.1574 288.881C23.064 267.38 36.1183 247.842 52.5748 231.385C69.0328 214.928 88.5742 201.868 110.078 192.961C131.581 184.055 154.63 179.47 177.905 179.47V250.368Z" fill="#183132"/>
<path d="M355.15 144.048C355.15 167.323 350.565 190.372 341.659 211.875C332.752 233.378 319.699 252.92 303.241 269.378C286.783 285.836 267.242 298.888 245.738 307.795C224.235 316.702 201.186 321.287 177.911 321.287V250.389C191.876 250.389 205.71 247.643 218.612 242.299C231.513 236.955 243.234 229.119 253.108 219.245C262.982 209.37 270.818 197.65 276.162 184.748C281.507 171.846 284.252 158.013 284.252 144.048H355.15Z" fill="#183132"/>
<path d="M177.905 108.572C163.939 108.572 150.106 111.324 137.204 116.668C124.304 122.012 112.582 129.842 102.708 139.716C92.8333 149.59 84.9977 161.317 79.6535 174.219C74.3099 187.12 71.5573 200.948 71.5573 214.912H0.666016C0.666015 191.637 5.25039 168.588 14.1574 147.085C23.0639 125.583 36.1184 106.046 52.5748 89.5892C69.0328 73.1313 88.5742 60.0719 110.078 51.1649C131.581 42.2582 154.63 37.6736 177.905 37.6736V108.572Z" fill="#183132"/>
<path d="M355.15 2.25195C355.15 25.527 350.566 48.5755 341.659 70.0789C332.752 91.5807 319.698 111.118 303.241 127.575C286.783 144.033 267.242 157.092 245.738 165.999C224.235 174.906 201.186 179.49 177.911 179.49V108.592C191.876 108.592 205.71 105.84 218.612 100.496C231.512 95.1521 243.234 87.3218 253.108 77.4484C262.983 67.5736 270.818 55.8474 276.162 42.9454C281.506 30.044 284.252 16.2161 284.252 2.25195H355.15Z" fill="#183132"/>
<path d="M2890.23 359.301C2873.45 359.301 2858.01 356.784 2843.92 351.75C2829.82 346.716 2817.74 339.669 2807.67 330.607C2797.61 321.21 2789.89 310.303 2784.52 297.886L2833.35 276.24C2838.38 285.637 2845.76 293.523 2855.5 299.9C2865.56 306.276 2876.64 309.464 2888.72 309.464C2901.81 309.464 2912.21 307.283 2919.93 302.92C2927.99 298.222 2932.01 291.845 2932.01 283.791C2932.01 276.072 2928.99 270.199 2922.95 266.172C2916.91 261.809 2908.35 258.285 2897.28 255.6L2873.62 249.056C2849.79 243.015 2831.17 233.45 2817.74 220.362C2804.32 206.938 2797.61 191.668 2797.61 174.552C2797.61 149.382 2805.66 129.917 2821.77 116.157C2838.21 102.397 2861.71 95.5176 2892.25 95.5176C2907.68 95.5176 2921.78 97.8668 2934.53 102.565C2947.62 106.928 2958.86 113.305 2968.26 121.695C2977.66 129.749 2984.2 139.314 2987.89 150.389L2941.08 171.532C2937.72 163.142 2931.34 156.765 2921.95 152.402C2912.55 147.704 2902.15 145.355 2890.73 145.355C2879.32 145.355 2870.43 147.872 2864.05 152.906C2857.68 157.604 2854.49 164.316 2854.49 173.042C2854.49 178.076 2857.34 182.774 2863.05 187.137C2868.75 191.164 2876.98 194.52 2887.71 197.205L2917.42 204.253C2933.86 208.28 2947.28 214.657 2957.69 223.382C2968.09 231.772 2975.81 241.337 2980.84 252.076C2985.88 262.48 2988.4 273.051 2988.4 283.791C2988.4 298.893 2984.03 312.149 2975.31 323.56C2966.92 334.97 2955.34 343.864 2940.57 350.24C2925.81 356.281 2909.03 359.301 2890.23 359.301Z" fill="#183132"/>
<path d="M2515.8 353.26V0.876953H2572.18V306.443L2569.16 353.26H2515.8ZM2651.72 359.301C2630.58 359.301 2612.29 353.931 2596.85 343.192C2581.75 332.117 2570.17 316.679 2562.11 296.879C2554.06 277.078 2550.03 253.922 2550.03 227.409C2550.03 200.561 2554.06 177.404 2562.11 157.939C2570.17 138.139 2581.75 122.869 2596.85 112.129C2612.29 101.054 2630.58 95.517 2651.72 95.517C2674.54 95.517 2694.34 101.054 2711.12 112.129C2728.24 122.869 2741.49 138.139 2750.89 157.939C2760.62 177.404 2765.49 200.561 2765.49 227.409C2765.49 253.922 2760.62 277.078 2750.89 296.879C2741.49 316.679 2728.24 332.117 2711.12 343.192C2694.34 353.931 2674.54 359.301 2651.72 359.301ZM2637.62 307.954C2651.05 307.954 2662.96 304.598 2673.37 297.885C2683.77 290.838 2691.99 281.273 2698.03 269.191C2704.41 257.11 2707.6 243.182 2707.6 227.409C2707.6 211.636 2704.58 197.708 2698.54 185.626C2692.83 173.545 2684.78 164.148 2674.37 157.436C2663.97 150.724 2651.89 147.368 2638.13 147.368C2625.38 147.368 2613.96 150.724 2603.9 157.436C2593.83 164.148 2585.94 173.545 2580.24 185.626C2574.87 197.708 2572.18 211.636 2572.18 227.409C2572.18 243.182 2574.87 257.11 2580.24 269.191C2585.94 281.273 2593.66 290.838 2603.39 297.885C2613.46 304.598 2624.87 307.954 2637.62 307.954Z" fill="#183132"/>
<path d="M2420.45 353.261L2417.93 305.941V223.886C2417.93 206.77 2416.09 192.507 2412.39 181.096C2409.04 169.35 2403.33 160.457 2395.28 154.416C2387.56 148.039 2377.16 144.851 2364.07 144.851C2351.99 144.851 2341.41 147.368 2332.35 152.402C2323.29 157.436 2315.57 165.323 2309.2 176.062L2259.86 157.94C2265.23 146.865 2272.28 136.629 2281.01 127.232C2290.07 117.5 2301.31 109.781 2314.73 104.075C2328.49 98.3702 2344.94 95.5176 2364.07 95.5176C2388.57 95.5176 2409.04 100.384 2425.48 110.116C2441.93 119.513 2454.01 133.105 2461.73 150.892C2469.78 168.679 2473.81 190.158 2473.81 215.328L2472.3 353.261H2420.45ZM2347.96 359.301C2317.75 359.301 2294.26 352.589 2277.48 339.165C2261.04 325.741 2252.82 306.78 2252.82 282.281C2252.82 256.104 2261.54 236.135 2278.99 222.375C2296.78 208.616 2321.45 201.736 2352.99 201.736H2420.45V245.029H2371.12C2348.63 245.029 2332.86 248.217 2323.8 254.593C2314.73 260.634 2310.2 269.36 2310.2 280.77C2310.2 290.503 2314.06 298.222 2321.78 303.927C2329.84 309.297 2340.91 311.981 2355.01 311.981C2367.76 311.981 2378.83 309.129 2388.23 303.424C2397.63 297.718 2404.84 290.167 2409.88 280.77C2415.25 271.373 2417.93 260.802 2417.93 249.056H2434.54C2434.54 283.287 2427.66 310.303 2413.9 330.104C2400.15 349.569 2378.16 359.301 2347.96 359.301Z" fill="#183132"/>
<path d="M2025.64 353.26V0.876953H2084.04V299.899H2243.62V353.26H2025.64Z" fill="#183132"/>
<path d="M1853.45 359.301C1828.28 359.301 1805.79 353.764 1785.99 342.689C1766.53 331.279 1751.26 315.673 1740.18 295.872C1729.11 276.072 1723.57 253.251 1723.57 227.41C1723.57 201.568 1728.94 178.747 1739.68 158.947C1750.76 139.146 1766.03 123.708 1785.49 112.633C1804.96 101.223 1827.27 95.5176 1852.44 95.5176C1877.61 95.5176 1899.93 101.223 1919.4 112.633C1938.86 123.708 1953.96 139.146 1964.7 158.947C1975.78 178.747 1981.32 201.568 1981.32 227.41C1981.32 253.251 1975.95 276.072 1965.21 295.872C1954.47 315.673 1939.36 331.279 1919.9 342.689C1900.44 353.764 1878.29 359.301 1853.45 359.301ZM1853.45 307.451C1867.21 307.451 1879.46 304.095 1890.2 297.383C1900.94 290.335 1909.33 280.938 1915.37 269.192C1921.41 257.11 1924.43 243.183 1924.43 227.41C1924.43 211.636 1921.24 197.876 1914.87 186.13C1908.83 174.049 1900.43 164.652 1889.7 157.94C1878.96 150.892 1866.54 147.368 1852.44 147.368C1838.35 147.368 1825.93 150.724 1815.19 157.436C1804.45 164.148 1796.06 173.545 1790.02 185.627C1783.98 197.709 1780.96 211.636 1780.96 227.41C1780.96 243.183 1783.98 257.11 1790.02 269.192C1796.4 280.938 1804.96 290.335 1815.7 297.383C1826.77 304.095 1839.36 307.451 1853.45 307.451Z" fill="#183132"/>
<path d="M1317.7 353.261V101.558H1370.56L1373.07 135.287C1380.79 122.198 1390.69 112.298 1402.77 105.586C1414.86 98.8736 1428.62 95.5176 1444.05 95.5176C1464.19 95.5176 1481.31 100.048 1495.4 109.109C1509.5 118.171 1519.73 131.93 1526.11 150.389C1533.49 132.602 1543.9 119.01 1557.32 109.613C1570.74 100.216 1586.52 95.5176 1604.64 95.5176C1633.84 95.5176 1656.32 104.914 1672.1 123.708C1687.87 142.166 1695.59 170.693 1695.25 209.287V353.261H1639.37V224.389C1639.37 204.253 1637.19 188.815 1632.83 178.076C1628.47 167.001 1622.59 159.282 1615.21 154.919C1607.83 150.556 1599.27 148.375 1589.54 148.375C1572.09 148.039 1558.49 154.248 1548.76 167.001C1539.36 179.754 1534.67 198.044 1534.67 221.872V353.261H1478.29V224.389C1478.29 204.253 1476.1 188.815 1471.74 178.076C1467.71 167.001 1462.01 159.282 1454.63 154.919C1447.24 150.556 1438.68 148.375 1428.95 148.375C1411.5 148.039 1397.91 154.248 1388.18 167.001C1378.78 179.754 1374.08 198.044 1374.08 221.872V353.261H1317.7Z" fill="#183132"/>
<path d="M1167.79 359.301C1143.29 359.301 1121.48 353.764 1102.35 342.689C1083.56 331.279 1068.62 315.673 1057.55 295.872C1046.81 276.072 1041.44 253.251 1041.44 227.41C1041.44 201.568 1046.98 178.747 1058.05 158.947C1069.13 139.146 1084.23 123.708 1103.36 112.633C1122.82 101.223 1144.97 95.5176 1169.81 95.5176C1192.29 95.5176 1212.6 101.391 1230.72 113.137C1248.84 124.547 1263.11 141.16 1273.51 162.974C1284.25 184.788 1289.62 210.797 1289.62 241.001H1091.78L1099.33 233.954C1099.33 249.391 1102.69 262.816 1109.4 274.226C1116.11 285.301 1125 293.859 1136.08 299.9C1147.15 305.941 1159.4 308.961 1172.83 308.961C1188.27 308.961 1201.02 305.605 1211.09 298.893C1221.15 291.845 1229.04 282.784 1234.75 271.709L1284.58 292.852C1277.54 306.276 1268.47 318.022 1257.4 328.09C1246.66 338.158 1233.74 345.877 1218.64 351.247C1203.87 356.617 1186.92 359.301 1167.79 359.301ZM1102.85 204.756L1094.8 197.709H1236.76L1229.21 204.756C1229.21 190.997 1226.19 179.754 1220.15 171.028C1214.11 161.967 1206.39 155.255 1196.99 150.892C1187.93 146.194 1178.37 143.844 1168.3 143.844C1158.23 143.844 1148.16 146.194 1138.09 150.892C1128.02 155.255 1119.63 161.967 1112.92 171.028C1106.21 179.754 1102.85 190.997 1102.85 204.756Z" fill="#183132"/>
<path d="M786.489 353.261V101.558H839.347L842.871 147.872V353.261H786.489ZM957.143 353.261V224.389H1013.52V353.261H957.143ZM957.143 224.389C957.143 204.253 954.794 188.815 950.096 178.076C945.733 167.001 939.356 159.282 930.966 154.919C922.912 150.556 913.347 148.375 902.272 148.375C883.478 148.039 868.88 154.248 858.476 167.001C848.072 179.754 842.871 198.044 842.871 221.872H821.728C821.728 195.359 825.587 172.706 833.306 153.912C841.025 134.783 852.1 120.352 866.531 110.62C880.961 100.552 898.077 95.5176 917.878 95.5176C938.014 95.5176 955.13 99.5448 969.225 107.599C983.656 115.654 994.563 128.239 1001.95 145.355C1009.67 162.135 1013.52 184.117 1013.52 211.301V224.389H957.143Z" fill="#183132"/>
<path d="M704.324 353.26L566.895 0.876953H625.289L766.243 353.26H704.324ZM422.921 353.26L563.371 0.876953H622.269L484.84 353.26H422.921ZM488.867 266.674V214.824H699.793V266.674H488.867Z" fill="#183132"/>
</svg>
