<svg width="2989" height="359" viewBox="0 0 2989 359" fill="none" xmlns="http://www.w3.org/2000/svg">
<path d="M177.905 250.022C163.939 250.022 150.106 252.774 137.204 258.118C124.304 263.462 112.582 271.293 102.708 281.166C92.8333 291.041 84.9977 302.767 79.6535 315.669C74.3098 328.57 71.5575 342.398 71.5573 356.363H0.666016C0.66624 333.088 5.2506 310.039 14.1574 288.536C23.064 267.034 36.1183 247.497 52.5748 231.04C69.0328 214.582 88.5742 201.522 110.078 192.615C131.581 183.709 154.63 179.124 177.905 179.124V250.022Z" fill="#004D43"/>
<path d="M355.15 143.702C355.15 166.977 350.565 190.026 341.659 211.529C332.752 233.033 319.699 252.574 303.241 269.032C286.783 285.49 267.242 298.543 245.738 307.45C224.235 316.357 201.186 320.941 177.911 320.941V250.043C191.876 250.043 205.71 247.298 218.612 241.954C231.513 236.609 243.234 228.773 253.108 218.899C262.982 209.025 270.818 197.304 276.162 184.403C281.507 171.501 284.252 157.668 284.252 143.702H355.15Z" fill="#004D43"/>
<path d="M177.905 108.226C163.939 108.226 150.106 110.978 137.204 116.322C124.304 121.666 112.582 129.497 102.708 139.37C92.8333 149.245 84.9977 160.971 79.6535 173.873C74.3099 186.774 71.5573 200.602 71.5573 214.566H0.666016C0.666015 191.291 5.25039 168.243 14.1574 146.739C23.0639 125.238 36.1184 105.701 52.5748 89.2435C69.0328 72.7856 88.5742 59.7262 110.078 50.8192C131.581 41.9125 154.63 37.3279 177.905 37.3279V108.226Z" fill="#004D43"/>
<path d="M355.15 1.90625C355.15 25.1813 350.566 48.2298 341.659 69.7332C332.752 91.235 319.698 110.772 303.241 127.229C286.783 143.687 267.242 156.746 245.738 165.653C224.235 174.56 201.186 179.145 177.911 179.145V108.247C191.876 108.247 205.71 105.495 218.612 100.15C231.512 94.8064 243.234 86.9761 253.108 77.1027C262.983 67.2279 270.818 55.5017 276.162 42.5997C281.506 29.6983 284.252 15.8704 284.252 1.90625H355.15Z" fill="#004D43"/>
<path d="M2890.23 358.956C2873.45 358.956 2858.01 356.439 2843.92 351.405C2829.82 346.371 2817.74 339.323 2807.67 330.262C2797.61 320.865 2789.89 309.958 2784.52 297.54L2833.35 275.894C2838.38 285.291 2845.76 293.178 2855.5 299.554C2865.56 305.93 2876.64 309.119 2888.72 309.119C2901.81 309.119 2912.21 306.937 2919.93 302.574C2927.99 297.876 2932.01 291.5 2932.01 283.445C2932.01 275.726 2928.99 269.853 2922.95 265.826C2916.91 261.463 2908.35 257.939 2897.28 255.254L2873.62 248.71C2849.79 242.669 2831.17 233.105 2817.74 220.016C2804.32 206.592 2797.61 191.322 2797.61 174.206C2797.61 149.036 2805.66 129.571 2821.77 115.811C2838.21 102.052 2861.71 95.1719 2892.25 95.1719C2907.68 95.1719 2921.78 97.5211 2934.53 102.22C2947.62 106.582 2958.86 112.959 2968.26 121.349C2977.66 129.403 2984.2 138.968 2987.89 150.043L2941.08 171.186C2937.72 162.796 2931.34 156.419 2921.95 152.057C2912.55 147.358 2902.15 145.009 2890.73 145.009C2879.32 145.009 2870.43 147.526 2864.05 152.56C2857.68 157.258 2854.49 163.97 2854.49 172.696C2854.49 177.73 2857.34 182.429 2863.05 186.791C2868.75 190.819 2876.98 194.175 2887.71 196.86L2917.42 203.907C2933.86 207.934 2947.28 214.311 2957.69 223.037C2968.09 231.427 2975.81 240.991 2980.84 251.731C2985.88 262.134 2988.4 272.706 2988.4 283.445C2988.4 298.547 2984.03 311.804 2975.31 323.214C2966.92 334.624 2955.34 343.518 2940.57 349.894C2925.81 355.935 2909.03 358.956 2890.23 358.956Z" fill="#004D43"/>
<path d="M2515.8 352.914V0.53125H2572.18V306.098L2569.16 352.914H2515.8ZM2651.72 358.955C2630.58 358.955 2612.29 353.585 2596.85 342.846C2581.75 331.771 2570.17 316.334 2562.11 296.533C2554.06 276.732 2550.03 253.576 2550.03 227.063C2550.03 200.215 2554.06 177.058 2562.11 157.593C2570.17 137.793 2581.75 122.523 2596.85 111.784C2612.29 100.709 2630.58 95.1713 2651.72 95.1713C2674.54 95.1713 2694.34 100.709 2711.12 111.784C2728.24 122.523 2741.49 137.793 2750.89 157.593C2760.62 177.058 2765.49 200.215 2765.49 227.063C2765.49 253.576 2760.62 276.732 2750.89 296.533C2741.49 316.334 2728.24 331.771 2711.12 342.846C2694.34 353.585 2674.54 358.955 2651.72 358.955ZM2637.62 307.608C2651.05 307.608 2662.96 304.252 2673.37 297.54C2683.77 290.492 2691.99 280.927 2698.03 268.846C2704.41 256.764 2707.6 242.837 2707.6 227.063C2707.6 211.29 2704.58 197.362 2698.54 185.281C2692.83 173.199 2684.78 163.802 2674.37 157.09C2663.97 150.378 2651.89 147.022 2638.13 147.022C2625.38 147.022 2613.96 150.378 2603.9 157.09C2593.83 163.802 2585.94 173.199 2580.24 185.281C2574.87 197.362 2572.18 211.29 2572.18 227.063C2572.18 242.837 2574.87 256.764 2580.24 268.846C2585.94 280.927 2593.66 290.492 2603.39 297.54C2613.46 304.252 2624.87 307.608 2637.62 307.608Z" fill="#004D43"/>
<path d="M2420.45 352.915L2417.93 305.595V223.54C2417.93 206.424 2416.09 192.161 2412.39 180.751C2409.04 169.005 2403.33 160.111 2395.28 154.07C2387.56 147.694 2377.16 144.505 2364.07 144.505C2351.99 144.505 2341.41 147.023 2332.35 152.057C2323.29 157.091 2315.57 164.977 2309.2 175.717L2259.86 157.594C2265.23 146.519 2272.28 136.283 2281.01 126.886C2290.07 117.154 2301.31 109.435 2314.73 103.73C2328.49 98.0245 2344.94 95.1719 2364.07 95.1719C2388.57 95.1719 2409.04 100.038 2425.48 109.771C2441.93 119.167 2454.01 132.759 2461.73 150.546C2469.78 168.333 2473.81 189.812 2473.81 214.982L2472.3 352.915H2420.45ZM2347.96 358.956C2317.75 358.956 2294.26 352.244 2277.48 338.82C2261.04 325.395 2252.82 306.434 2252.82 281.935C2252.82 255.758 2261.54 235.789 2278.99 222.03C2296.78 208.27 2321.45 201.39 2352.99 201.39H2420.45V244.683H2371.12C2348.63 244.683 2332.86 247.871 2323.8 254.248C2314.73 260.288 2310.2 269.014 2310.2 280.425C2310.2 290.157 2314.06 297.876 2321.78 303.581C2329.84 308.951 2340.91 311.636 2355.01 311.636C2367.76 311.636 2378.83 308.783 2388.23 303.078C2397.63 297.373 2404.84 289.822 2409.88 280.425C2415.25 271.028 2417.93 260.456 2417.93 248.71H2434.54C2434.54 282.942 2427.66 309.958 2413.9 329.758C2400.15 349.223 2378.16 358.956 2347.96 358.956Z" fill="#004D43"/>
<path d="M2025.64 352.914V0.53125H2084.04V299.553H2243.62V352.914H2025.64Z" fill="#004D43"/>
<path d="M1853.45 358.956C1828.28 358.956 1805.79 353.418 1785.99 342.343C1766.53 330.933 1751.26 315.327 1740.18 295.527C1729.11 275.726 1723.57 252.905 1723.57 227.064C1723.57 201.222 1728.94 178.401 1739.68 158.601C1750.76 138.8 1766.03 123.363 1785.49 112.288C1804.96 100.877 1827.27 95.1719 1852.44 95.1719C1877.61 95.1719 1899.93 100.877 1919.4 112.288C1938.86 123.363 1953.96 138.8 1964.7 158.601C1975.78 178.401 1981.32 201.222 1981.32 227.064C1981.32 252.905 1975.95 275.726 1965.21 295.527C1954.47 315.327 1939.36 330.933 1919.9 342.343C1900.44 353.418 1878.29 358.956 1853.45 358.956ZM1853.45 307.105C1867.21 307.105 1879.46 303.749 1890.2 297.037C1900.94 289.989 1909.33 280.592 1915.37 268.846C1921.41 256.765 1924.43 242.837 1924.43 227.064C1924.43 211.29 1921.24 197.531 1914.87 185.785C1908.83 173.703 1900.43 164.306 1889.7 157.594C1878.96 150.546 1866.54 147.023 1852.44 147.023C1838.35 147.023 1825.93 150.379 1815.19 157.091C1804.45 163.803 1796.06 173.2 1790.02 185.281C1783.98 197.363 1780.96 211.29 1780.96 227.064C1780.96 242.837 1783.98 256.765 1790.02 268.846C1796.4 280.592 1804.96 289.989 1815.7 297.037C1826.77 303.749 1839.36 307.105 1853.45 307.105Z" fill="#004D43"/>
<path d="M1317.7 352.915V101.213H1370.56L1373.07 134.941C1380.79 121.852 1390.69 111.952 1402.77 105.24C1414.86 98.5279 1428.62 95.1719 1444.05 95.1719C1464.19 95.1719 1481.31 99.7025 1495.4 108.764C1509.5 117.825 1519.73 131.585 1526.11 150.043C1533.49 132.256 1543.9 118.664 1557.32 109.267C1570.74 99.8703 1586.52 95.1719 1604.64 95.1719C1633.84 95.1719 1656.32 104.569 1672.1 123.363C1687.87 141.821 1695.59 170.347 1695.25 208.941V352.915H1639.37V224.043C1639.37 203.907 1637.19 188.469 1632.83 177.73C1628.47 166.655 1622.59 158.936 1615.21 154.574C1607.83 150.211 1599.27 148.029 1589.54 148.029C1572.09 147.694 1558.49 153.902 1548.76 166.655C1539.36 179.408 1534.67 197.699 1534.67 221.526V352.915H1478.29V224.043C1478.29 203.907 1476.1 188.469 1471.74 177.73C1467.71 166.655 1462.01 158.936 1454.63 154.574C1447.24 150.211 1438.68 148.029 1428.95 148.029C1411.5 147.694 1397.91 153.902 1388.18 166.655C1378.78 179.408 1374.08 197.699 1374.08 221.526V352.915H1317.7Z" fill="#004D43"/>
<path d="M1167.79 358.956C1143.29 358.956 1121.48 353.418 1102.35 342.343C1083.56 330.933 1068.62 315.327 1057.55 295.527C1046.81 275.726 1041.44 252.905 1041.44 227.064C1041.44 201.222 1046.98 178.401 1058.05 158.601C1069.13 138.8 1084.23 123.363 1103.36 112.288C1122.82 100.877 1144.97 95.1719 1169.81 95.1719C1192.29 95.1719 1212.6 101.045 1230.72 112.791C1248.84 124.202 1263.11 140.814 1273.51 162.628C1284.25 184.442 1289.62 210.451 1289.62 240.656H1091.78L1099.33 233.608C1099.33 249.046 1102.69 262.47 1109.4 273.88C1116.11 284.955 1125 293.513 1136.08 299.554C1147.15 305.595 1159.4 308.615 1172.83 308.615C1188.27 308.615 1201.02 305.259 1211.09 298.547C1221.15 291.5 1229.04 282.438 1234.75 271.363L1284.58 292.506C1277.54 305.93 1268.47 317.677 1257.4 327.745C1246.66 337.813 1233.74 345.532 1218.64 350.901C1203.87 356.271 1186.92 358.956 1167.79 358.956ZM1102.85 204.411L1094.8 197.363H1236.76L1229.21 204.411C1229.21 190.651 1226.19 179.408 1220.15 170.683C1214.11 161.621 1206.39 154.909 1196.99 150.546C1187.93 145.848 1178.37 143.499 1168.3 143.499C1158.23 143.499 1148.16 145.848 1138.09 150.546C1128.02 154.909 1119.63 161.621 1112.92 170.683C1106.21 179.408 1102.85 190.651 1102.85 204.411Z" fill="#004D43"/>
<path d="M786.489 352.915V101.213H839.347L842.871 147.526V352.915H786.489ZM957.143 352.915V224.043H1013.52V352.915H957.143ZM957.143 224.043C957.143 203.907 954.794 188.469 950.096 177.73C945.733 166.655 939.356 158.936 930.966 154.574C922.912 150.211 913.347 148.029 902.272 148.029C883.478 147.694 868.88 153.902 858.476 166.655C848.072 179.408 842.871 197.699 842.871 221.526H821.728C821.728 195.014 825.587 172.361 833.306 153.567C841.025 134.437 852.1 120.006 866.531 110.274C880.961 100.206 898.077 95.1719 917.878 95.1719C938.014 95.1719 955.13 99.1991 969.225 107.254C983.656 115.308 994.563 127.893 1001.95 145.009C1009.67 161.789 1013.52 183.771 1013.52 210.955V224.043H957.143Z" fill="#004D43"/>
<path d="M704.324 352.914L566.895 0.53125H625.289L766.243 352.914H704.324ZM422.921 352.914L563.371 0.53125H622.269L484.84 352.914H422.921ZM488.867 266.329V214.478H699.793V266.329H488.867Z" fill="#004D43"/>
</svg>
