<svg width="2989" height="359" viewBox="0 0 2989 359" fill="none" xmlns="http://www.w3.org/2000/svg">
<path d="M177.905 249.677C163.939 249.677 150.106 252.429 137.204 257.773C124.304 263.117 112.582 270.947 102.708 280.82C92.8333 290.695 84.9977 302.421 79.6535 315.323C74.3098 328.225 71.5575 342.053 71.5573 356.017H0.666016C0.66624 332.742 5.2506 309.693 14.1574 288.19C23.064 266.688 36.1183 247.151 52.5748 230.694C69.0328 214.236 88.5742 201.177 110.078 192.27C131.581 183.363 154.63 178.778 177.905 178.778V249.677Z" fill="#D0FF71"/>
<path d="M355.15 143.357C355.15 166.632 350.565 189.68 341.659 211.184C332.752 232.687 319.699 252.229 303.241 268.686C286.783 285.144 267.242 298.197 245.738 307.104C224.235 316.011 201.186 320.595 177.911 320.595V249.697C191.876 249.697 205.71 246.952 218.612 241.608C231.513 236.264 243.234 228.428 253.108 218.553C262.982 208.679 270.818 196.958 276.162 184.057C281.507 171.155 284.252 157.322 284.252 143.357H355.15Z" fill="#D0FF71"/>
<path d="M177.905 107.88C163.939 107.88 150.106 110.632 137.204 115.976C124.304 121.32 112.582 129.151 102.708 139.024C92.8333 148.899 84.9977 160.625 79.6535 173.527C74.3099 186.429 71.5573 200.256 71.5573 214.221H0.666016C0.666015 190.946 5.25039 167.897 14.1574 146.394C23.0639 124.892 36.1184 105.355 52.5748 88.8978C69.0328 72.4399 88.5742 59.3805 110.078 50.4735C131.581 41.5668 154.63 36.9822 177.905 36.9822V107.88Z" fill="#D0FF71"/>
<path d="M355.15 1.56055C355.15 24.8356 350.566 47.8841 341.659 69.3875C332.752 90.8893 319.698 110.426 303.241 126.883C286.783 143.341 267.242 156.401 245.738 165.308C224.235 174.214 201.186 178.799 177.911 178.799V107.901C191.876 107.901 205.71 105.149 218.612 99.8047C231.512 94.4607 243.234 86.6304 253.108 76.757C262.983 66.8822 270.818 55.156 276.162 42.254C281.506 29.3526 284.252 15.5247 284.252 1.56055H355.15Z" fill="#D0FF71"/>
<path d="M2890.23 358.61C2873.45 358.61 2858.01 356.093 2843.92 351.059C2829.82 346.025 2817.74 338.977 2807.67 329.916C2797.61 320.519 2789.89 309.612 2784.52 297.195L2833.35 275.548C2838.38 284.945 2845.76 292.832 2855.5 299.208C2865.56 305.585 2876.64 308.773 2888.72 308.773C2901.81 308.773 2912.21 306.592 2919.93 302.229C2927.99 297.53 2932.01 291.154 2932.01 283.099C2932.01 275.381 2928.99 269.507 2922.95 265.48C2916.91 261.117 2908.35 257.594 2897.28 254.909L2873.62 248.364C2849.79 242.324 2831.17 232.759 2817.74 219.67C2804.32 206.246 2797.61 190.976 2797.61 173.861C2797.61 148.69 2805.66 129.225 2821.77 115.466C2838.21 101.706 2861.71 94.8262 2892.25 94.8262C2907.68 94.8262 2921.78 97.1754 2934.53 101.874C2947.62 106.237 2958.86 112.613 2968.26 121.003C2977.66 129.058 2984.2 138.622 2987.89 149.697L2941.08 170.84C2937.72 162.45 2931.34 156.074 2921.95 151.711C2912.55 147.012 2902.15 144.663 2890.73 144.663C2879.32 144.663 2870.43 147.18 2864.05 152.214C2857.68 156.913 2854.49 163.625 2854.49 172.35C2854.49 177.384 2857.34 182.083 2863.05 186.446C2868.75 190.473 2876.98 193.829 2887.71 196.514L2917.42 203.562C2933.86 207.589 2947.28 213.965 2957.69 222.691C2968.09 231.081 2975.81 240.646 2980.84 251.385C2985.88 261.789 2988.4 272.36 2988.4 283.099C2988.4 298.202 2984.03 311.458 2975.31 322.868C2966.92 334.279 2955.34 343.172 2940.57 349.549C2925.81 355.59 2909.03 358.61 2890.23 358.61Z" fill="white"/>
<path d="M2515.8 352.569V0.185547H2572.18V305.752L2569.16 352.569H2515.8ZM2651.72 358.609C2630.58 358.609 2612.29 353.24 2596.85 342.5C2581.75 331.426 2570.17 315.988 2562.11 296.187C2554.06 276.387 2550.03 253.23 2550.03 226.717C2550.03 199.869 2554.06 176.713 2562.11 157.248C2570.17 137.447 2581.75 122.177 2596.85 111.438C2612.29 100.363 2630.58 94.8256 2651.72 94.8256C2674.54 94.8256 2694.34 100.363 2711.12 111.438C2728.24 122.177 2741.49 137.447 2750.89 157.248C2760.62 176.713 2765.49 199.869 2765.49 226.717C2765.49 253.23 2760.62 276.387 2750.89 296.187C2741.49 315.988 2728.24 331.426 2711.12 342.5C2694.34 353.24 2674.54 358.609 2651.72 358.609ZM2637.62 307.262C2651.05 307.262 2662.96 303.906 2673.37 297.194C2683.77 290.146 2691.99 280.582 2698.03 268.5C2704.41 256.418 2707.6 242.491 2707.6 226.717C2707.6 210.944 2704.58 197.017 2698.54 184.935C2692.83 172.853 2684.78 163.456 2674.37 156.744C2663.97 150.032 2651.89 146.676 2638.13 146.676C2625.38 146.676 2613.96 150.032 2603.9 156.744C2593.83 163.456 2585.94 172.853 2580.24 184.935C2574.87 197.017 2572.18 210.944 2572.18 226.717C2572.18 242.491 2574.87 256.418 2580.24 268.5C2585.94 280.582 2593.66 290.146 2603.39 297.194C2613.46 303.906 2624.87 307.262 2637.62 307.262Z" fill="white"/>
<path d="M2420.45 352.569L2417.93 305.249V223.194C2417.93 206.079 2416.09 191.815 2412.39 180.405C2409.04 168.659 2403.33 159.765 2395.28 153.724C2387.56 147.348 2377.16 144.16 2364.07 144.16C2351.99 144.16 2341.41 146.677 2332.35 151.711C2323.29 156.745 2315.57 164.632 2309.2 175.371L2259.86 157.248C2265.23 146.173 2272.28 135.938 2281.01 126.541C2290.07 116.808 2301.31 109.089 2314.73 103.384C2328.49 97.6788 2344.94 94.8262 2364.07 94.8262C2388.57 94.8262 2409.04 99.6924 2425.48 109.425C2441.93 118.822 2454.01 132.414 2461.73 150.201C2469.78 167.988 2473.81 189.466 2473.81 214.636L2472.3 352.569H2420.45ZM2347.96 358.61C2317.75 358.61 2294.26 351.898 2277.48 338.474C2261.04 325.05 2252.82 306.088 2252.82 281.589C2252.82 255.412 2261.54 235.444 2278.99 221.684C2296.78 207.924 2321.45 201.044 2352.99 201.044H2420.45V244.337H2371.12C2348.63 244.337 2332.86 247.525 2323.8 253.902C2314.73 259.943 2310.2 268.668 2310.2 280.079C2310.2 289.811 2314.06 297.53 2321.78 303.236C2329.84 308.605 2340.91 311.29 2355.01 311.29C2367.76 311.29 2378.83 308.437 2388.23 302.732C2397.63 297.027 2404.84 289.476 2409.88 280.079C2415.25 270.682 2417.93 260.111 2417.93 248.364H2434.54C2434.54 282.596 2427.66 309.612 2413.9 329.413C2400.15 348.878 2378.16 358.61 2347.96 358.61Z" fill="white"/>
<path d="M2025.64 352.569V0.185547H2084.04V299.208H2243.62V352.569H2025.64Z" fill="white"/>
<path d="M1853.45 358.61C1828.28 358.61 1805.79 353.073 1785.99 341.998C1766.53 330.587 1751.26 314.982 1740.18 295.181C1729.11 275.381 1723.57 252.56 1723.57 226.718C1723.57 200.877 1728.94 178.056 1739.68 158.255C1750.76 138.455 1766.03 123.017 1785.49 111.942C1804.96 100.531 1827.27 94.8262 1852.44 94.8262C1877.61 94.8262 1899.93 100.531 1919.4 111.942C1938.86 123.017 1953.96 138.455 1964.7 158.255C1975.78 178.056 1981.32 200.877 1981.32 226.718C1981.32 252.56 1975.95 275.381 1965.21 295.181C1954.47 314.982 1939.36 330.587 1919.9 341.998C1900.44 353.073 1878.29 358.61 1853.45 358.61ZM1853.45 306.759C1867.21 306.759 1879.46 303.403 1890.2 296.691C1900.94 289.644 1909.33 280.247 1915.37 268.501C1921.41 256.419 1924.43 242.491 1924.43 226.718C1924.43 210.945 1921.24 197.185 1914.87 185.439C1908.83 173.357 1900.43 163.96 1889.7 157.248C1878.96 150.201 1866.54 146.677 1852.44 146.677C1838.35 146.677 1825.93 150.033 1815.19 156.745C1804.45 163.457 1796.06 172.854 1790.02 184.936C1783.98 197.017 1780.96 210.945 1780.96 226.718C1780.96 242.491 1783.98 256.419 1790.02 268.501C1796.4 280.247 1804.96 289.644 1815.7 296.691C1826.77 303.403 1839.36 306.759 1853.45 306.759Z" fill="white"/>
<path d="M1317.7 352.569V100.867H1370.56L1373.07 134.595C1380.79 121.507 1390.69 111.606 1402.77 104.894C1414.86 98.1822 1428.62 94.8262 1444.05 94.8262C1464.19 94.8262 1481.31 99.3568 1495.4 108.418C1509.5 117.479 1519.73 131.239 1526.11 149.697C1533.49 131.91 1543.9 118.318 1557.32 108.921C1570.74 99.5246 1586.52 94.8262 1604.64 94.8262C1633.84 94.8262 1656.32 104.223 1672.1 123.017C1687.87 141.475 1695.59 170.001 1695.25 208.596V352.569H1639.37V223.698C1639.37 203.562 1637.19 188.124 1632.83 177.384C1628.47 166.31 1622.59 158.591 1615.21 154.228C1607.83 149.865 1599.27 147.684 1589.54 147.684C1572.09 147.348 1558.49 153.557 1548.76 166.31C1539.36 179.062 1534.67 197.353 1534.67 221.181V352.569H1478.29V223.698C1478.29 203.562 1476.1 188.124 1471.74 177.384C1467.71 166.31 1462.01 158.591 1454.63 154.228C1447.24 149.865 1438.68 147.684 1428.95 147.684C1411.5 147.348 1397.91 153.557 1388.18 166.31C1378.78 179.062 1374.08 197.353 1374.08 221.181V352.569H1317.7Z" fill="white"/>
<path d="M1167.79 358.61C1143.29 358.61 1121.48 353.073 1102.35 341.998C1083.56 330.587 1068.62 314.982 1057.55 295.181C1046.81 275.381 1041.44 252.56 1041.44 226.718C1041.44 200.877 1046.98 178.056 1058.05 158.255C1069.13 138.455 1084.23 123.017 1103.36 111.942C1122.82 100.531 1144.97 94.8262 1169.81 94.8262C1192.29 94.8262 1212.6 100.699 1230.72 112.445C1248.84 123.856 1263.11 140.468 1273.51 162.282C1284.25 184.097 1289.62 210.106 1289.62 240.31H1091.78L1099.33 233.262C1099.33 248.7 1102.69 262.124 1109.4 273.535C1116.11 284.61 1125 293.167 1136.08 299.208C1147.15 305.249 1159.4 308.27 1172.83 308.27C1188.27 308.27 1201.02 304.914 1211.09 298.201C1221.15 291.154 1229.04 282.093 1234.75 271.018L1284.58 292.161C1277.54 305.585 1268.47 317.331 1257.4 327.399C1246.66 337.467 1233.74 345.186 1218.64 350.556C1203.87 355.925 1186.92 358.61 1167.79 358.61ZM1102.85 204.065L1094.8 197.017H1236.76L1229.21 204.065C1229.21 190.305 1226.19 179.062 1220.15 170.337C1214.11 161.276 1206.39 154.563 1196.99 150.201C1187.93 145.502 1178.37 143.153 1168.3 143.153C1158.23 143.153 1148.16 145.502 1138.09 150.201C1128.02 154.563 1119.63 161.276 1112.92 170.337C1106.21 179.062 1102.85 190.305 1102.85 204.065Z" fill="white"/>
<path d="M786.489 352.569V100.867H839.347L842.871 147.18V352.569H786.489ZM957.143 352.569V223.698H1013.52V352.569H957.143ZM957.143 223.698C957.143 203.562 954.794 188.124 950.096 177.384C945.733 166.31 939.356 158.591 930.966 154.228C922.912 149.865 913.347 147.684 902.272 147.684C883.478 147.348 868.88 153.557 858.476 166.31C848.072 179.062 842.871 197.353 842.871 221.181H821.728C821.728 194.668 825.587 172.015 833.306 153.221C841.025 134.092 852.1 119.661 866.531 109.928C880.961 99.8602 898.077 94.8262 917.878 94.8262C938.014 94.8262 955.13 98.8534 969.225 106.908C983.656 114.962 994.563 127.547 1001.95 144.663C1009.67 161.443 1013.52 183.425 1013.52 210.609V223.698H957.143Z" fill="white"/>
<path d="M704.324 352.569L566.895 0.185547H625.289L766.243 352.569H704.324ZM422.921 352.569L563.371 0.185547H622.269L484.84 352.569H422.921ZM488.867 265.983V214.132H699.793V265.983H488.867Z" fill="white"/>
</svg>
