<svg width="2989" height="360" viewBox="0 0 2989 360" fill="none" xmlns="http://www.w3.org/2000/svg">
<path d="M177.905 250.331C163.939 250.331 150.106 253.083 137.204 258.427C124.304 263.771 112.582 271.602 102.708 281.475C92.8333 291.35 84.9977 303.076 79.6535 315.978C74.3098 328.879 71.5575 342.707 71.5573 356.671H0.666016C0.66624 333.397 5.2506 310.347 14.1574 288.844C23.064 267.343 36.1183 247.805 52.5748 231.348C69.0328 214.89 88.5742 201.831 110.078 192.924C131.581 184.018 154.63 179.433 177.905 179.433V250.331Z" fill="white"/>
<path d="M355.15 144.011C355.15 167.286 350.565 190.335 341.659 211.838C332.752 233.341 319.699 252.883 303.241 269.341C286.783 285.799 267.242 298.851 245.738 307.758C224.235 316.665 201.186 321.25 177.911 321.25V250.351C191.876 250.351 205.71 247.606 218.612 242.262C231.513 236.918 243.234 229.082 253.108 219.208C262.982 209.333 270.818 197.613 276.162 184.711C281.507 171.809 284.252 157.976 284.252 144.011H355.15Z" fill="white"/>
<path d="M177.905 108.535C163.939 108.535 150.106 111.287 137.204 116.631C124.304 121.975 112.582 129.805 102.708 139.679C92.8333 149.553 84.9977 161.28 79.6535 174.182C74.3099 187.083 71.5573 200.911 71.5573 214.875H0.666016C0.666015 191.6 5.25039 168.551 14.1574 147.048C23.0639 125.546 36.1184 106.009 52.5748 89.5521C69.0328 73.0942 88.5742 60.0348 110.078 51.1278C131.581 42.2211 154.63 37.6365 177.905 37.6365V108.535Z" fill="white"/>
<path d="M355.15 2.21484C355.15 25.4899 350.566 48.5384 341.659 70.0418C332.752 91.5435 319.698 111.081 303.241 127.538C286.783 143.996 267.242 157.055 245.738 165.962C224.235 174.869 201.186 179.453 177.911 179.453V108.555C191.876 108.555 205.71 105.803 218.612 100.459C231.512 95.115 243.234 87.2847 253.108 77.4113C262.983 67.5365 270.818 55.8103 276.162 42.9083C281.506 30.0069 284.252 16.179 284.252 2.21484H355.15Z" fill="white"/>
<path d="M2890.23 359.264C2873.45 359.264 2858.01 356.747 2843.92 351.713C2829.82 346.679 2817.74 339.632 2807.67 330.57C2797.61 321.173 2789.89 310.266 2784.52 297.849L2833.35 276.203C2838.38 285.599 2845.76 293.486 2855.5 299.863C2865.56 306.239 2876.64 309.427 2888.72 309.427C2901.81 309.427 2912.21 307.246 2919.93 302.883C2927.99 298.185 2932.01 291.808 2932.01 283.754C2932.01 276.035 2928.99 270.162 2922.95 266.135C2916.91 261.772 2908.35 258.248 2897.28 255.563L2873.62 249.019C2849.79 242.978 2831.17 233.413 2817.74 220.325C2804.32 206.901 2797.61 191.631 2797.61 174.515C2797.61 149.345 2805.66 129.88 2821.77 116.12C2838.21 102.36 2861.71 95.4805 2892.25 95.4805C2907.68 95.4805 2921.78 97.8297 2934.53 102.528C2947.62 106.891 2958.86 113.267 2968.26 121.658C2977.66 129.712 2984.2 139.277 2987.89 150.352L2941.08 171.495C2937.72 163.104 2931.34 156.728 2921.95 152.365C2912.55 147.667 2902.15 145.317 2890.73 145.317C2879.32 145.317 2870.43 147.835 2864.05 152.869C2857.68 157.567 2854.49 164.279 2854.49 173.005C2854.49 178.039 2857.34 182.737 2863.05 187.1C2868.75 191.127 2876.98 194.483 2887.71 197.168L2917.42 204.216C2933.86 208.243 2947.28 214.619 2957.69 223.345C2968.09 231.735 2975.81 241.3 2980.84 252.039C2985.88 262.443 2988.4 273.014 2988.4 283.754C2988.4 298.856 2984.03 312.112 2975.31 323.523C2966.92 334.933 2955.34 343.827 2940.57 350.203C2925.81 356.244 2909.03 359.264 2890.23 359.264Z" fill="white"/>
<path d="M2515.8 353.223V0.839844H2572.18V306.406L2569.16 353.223H2515.8ZM2651.72 359.264C2630.58 359.264 2612.29 353.894 2596.85 343.155C2581.75 332.08 2570.17 316.642 2562.11 296.842C2554.06 277.041 2550.03 253.884 2550.03 227.372C2550.03 200.524 2554.06 177.367 2562.11 157.902C2570.17 138.101 2581.75 122.831 2596.85 112.092C2612.29 101.017 2630.58 95.4799 2651.72 95.4799C2674.54 95.4799 2694.34 101.017 2711.12 112.092C2728.24 122.831 2741.49 138.101 2750.89 157.902C2760.62 177.367 2765.49 200.524 2765.49 227.372C2765.49 253.884 2760.62 277.041 2750.89 296.842C2741.49 316.642 2728.24 332.08 2711.12 343.155C2694.34 353.894 2674.54 359.264 2651.72 359.264ZM2637.62 307.916C2651.05 307.916 2662.96 304.56 2673.37 297.848C2683.77 290.801 2691.99 281.236 2698.03 269.154C2704.41 257.073 2707.6 243.145 2707.6 227.372C2707.6 211.598 2704.58 197.671 2698.54 185.589C2692.83 173.508 2684.78 164.111 2674.37 157.399C2663.97 150.687 2651.89 147.331 2638.13 147.331C2625.38 147.331 2613.96 150.687 2603.9 157.399C2593.83 164.111 2585.94 173.508 2580.24 185.589C2574.87 197.671 2572.18 211.598 2572.18 227.372C2572.18 243.145 2574.87 257.073 2580.24 269.154C2585.94 281.236 2593.66 290.801 2603.39 297.848C2613.46 304.56 2624.87 307.916 2637.62 307.916Z" fill="white"/>
<path d="M2420.45 353.223L2417.93 305.903V223.849C2417.93 206.733 2416.09 192.47 2412.39 181.059C2409.04 169.313 2403.33 160.42 2395.28 154.379C2387.56 148.002 2377.16 144.814 2364.07 144.814C2351.99 144.814 2341.41 147.331 2332.35 152.365C2323.29 157.399 2315.57 165.286 2309.2 176.025L2259.86 157.903C2265.23 146.828 2272.28 136.592 2281.01 127.195C2290.07 117.462 2301.31 109.744 2314.73 104.038C2328.49 98.3331 2344.94 95.4805 2364.07 95.4805C2388.57 95.4805 2409.04 100.347 2425.48 110.079C2441.93 119.476 2454.01 133.068 2461.73 150.855C2469.78 168.642 2473.81 190.12 2473.81 215.291L2472.3 353.223H2420.45ZM2347.96 359.264C2317.75 359.264 2294.26 352.552 2277.48 339.128C2261.04 325.704 2252.82 306.742 2252.82 282.243C2252.82 256.066 2261.54 236.098 2278.99 222.338C2296.78 208.579 2321.45 201.699 2352.99 201.699H2420.45V244.992H2371.12C2348.63 244.992 2332.86 248.18 2323.8 254.556C2314.73 260.597 2310.2 269.323 2310.2 280.733C2310.2 290.466 2314.06 298.185 2321.78 303.89C2329.84 309.259 2340.91 311.944 2355.01 311.944C2367.76 311.944 2378.83 309.092 2388.23 303.386C2397.63 297.681 2404.84 290.13 2409.88 280.733C2415.25 271.336 2417.93 260.765 2417.93 249.019H2434.54C2434.54 283.25 2427.66 310.266 2413.9 330.067C2400.15 349.532 2378.16 359.264 2347.96 359.264Z" fill="white"/>
<path d="M2025.64 353.223V0.839844H2084.04V299.862H2243.62V353.223H2025.64Z" fill="white"/>
<path d="M1853.45 359.264C1828.28 359.264 1805.79 353.727 1785.99 342.652C1766.53 331.241 1751.26 315.636 1740.18 295.835C1729.11 276.035 1723.57 253.214 1723.57 227.372C1723.57 201.531 1728.94 178.71 1739.68 158.909C1750.76 139.109 1766.03 123.671 1785.49 112.596C1804.96 101.186 1827.27 95.4805 1852.44 95.4805C1877.61 95.4805 1899.93 101.186 1919.4 112.596C1938.86 123.671 1953.96 139.109 1964.7 158.909C1975.78 178.71 1981.32 201.531 1981.32 227.372C1981.32 253.214 1975.95 276.035 1965.21 295.835C1954.47 315.636 1939.36 331.241 1919.9 342.652C1900.44 353.727 1878.29 359.264 1853.45 359.264ZM1853.45 307.414C1867.21 307.414 1879.46 304.058 1890.2 297.346C1900.94 290.298 1909.33 280.901 1915.37 269.155C1921.41 257.073 1924.43 243.146 1924.43 227.372C1924.43 211.599 1921.24 197.839 1914.87 186.093C1908.83 174.012 1900.43 164.615 1889.7 157.903C1878.96 150.855 1866.54 147.331 1852.44 147.331C1838.35 147.331 1825.93 150.687 1815.19 157.399C1804.45 164.111 1796.06 173.508 1790.02 185.59C1783.98 197.672 1780.96 211.599 1780.96 227.372C1780.96 243.146 1783.98 257.073 1790.02 269.155C1796.4 280.901 1804.96 290.298 1815.7 297.346C1826.77 304.058 1839.36 307.414 1853.45 307.414Z" fill="white"/>
<path d="M1317.7 353.223V101.521H1370.56L1373.07 135.249C1380.79 122.161 1390.69 112.261 1402.77 105.549C1414.86 98.8365 1428.62 95.4805 1444.05 95.4805C1464.19 95.4805 1481.31 100.011 1495.4 109.072C1509.5 118.134 1519.73 131.893 1526.11 150.352C1533.49 132.565 1543.9 118.973 1557.32 109.576C1570.74 100.179 1586.52 95.4805 1604.64 95.4805C1633.84 95.4805 1656.32 104.877 1672.1 123.671C1687.87 142.129 1695.59 170.656 1695.25 209.25V353.223H1639.37V224.352C1639.37 204.216 1637.19 188.778 1632.83 178.039C1628.47 166.964 1622.59 159.245 1615.21 154.882C1607.83 150.519 1599.27 148.338 1589.54 148.338C1572.09 148.002 1558.49 154.211 1548.76 166.964C1539.36 179.717 1534.67 198.007 1534.67 221.835V353.223H1478.29V224.352C1478.29 204.216 1476.1 188.778 1471.74 178.039C1467.71 166.964 1462.01 159.245 1454.63 154.882C1447.24 150.519 1438.68 148.338 1428.95 148.338C1411.5 148.002 1397.91 154.211 1388.18 166.964C1378.78 179.717 1374.08 198.007 1374.08 221.835V353.223H1317.7Z" fill="white"/>
<path d="M1167.79 359.264C1143.29 359.264 1121.48 353.727 1102.35 342.652C1083.56 331.241 1068.62 315.636 1057.55 295.835C1046.81 276.035 1041.44 253.214 1041.44 227.372C1041.44 201.531 1046.98 178.71 1058.05 158.909C1069.13 139.109 1084.23 123.671 1103.36 112.596C1122.82 101.186 1144.97 95.4805 1169.81 95.4805C1192.29 95.4805 1212.6 101.354 1230.72 113.1C1248.84 124.51 1263.11 141.122 1273.51 162.937C1284.25 184.751 1289.62 210.76 1289.62 240.964H1091.78L1099.33 233.917C1099.33 249.354 1102.69 262.778 1109.4 274.189C1116.11 285.264 1125 293.822 1136.08 299.863C1147.15 305.903 1159.4 308.924 1172.83 308.924C1188.27 308.924 1201.02 305.568 1211.09 298.856C1221.15 291.808 1229.04 282.747 1234.75 271.672L1284.58 292.815C1277.54 306.239 1268.47 317.985 1257.4 328.053C1246.66 338.121 1233.74 345.84 1218.64 351.21C1203.87 356.579 1186.92 359.264 1167.79 359.264ZM1102.85 204.719L1094.8 197.672H1236.76L1229.21 204.719C1229.21 190.959 1226.19 179.717 1220.15 170.991C1214.11 161.93 1206.39 155.218 1196.99 150.855C1187.93 146.157 1178.37 143.807 1168.3 143.807C1158.23 143.807 1148.16 146.157 1138.09 150.855C1128.02 155.218 1119.63 161.93 1112.92 170.991C1106.21 179.717 1102.85 190.959 1102.85 204.719Z" fill="white"/>
<path d="M786.489 353.223V101.521H839.347L842.871 147.835V353.223H786.489ZM957.143 353.223V224.352H1013.52V353.223H957.143ZM957.143 224.352C957.143 204.216 954.794 188.778 950.096 178.039C945.733 166.964 939.356 159.245 930.966 154.882C922.912 150.519 913.347 148.338 902.272 148.338C883.478 148.002 868.88 154.211 858.476 166.964C848.072 179.717 842.871 198.007 842.871 221.835H821.728C821.728 195.322 825.587 172.669 833.306 153.875C841.025 134.746 852.1 120.315 866.531 110.583C880.961 100.515 898.077 95.4805 917.878 95.4805C938.014 95.4805 955.13 99.5077 969.225 107.562C983.656 115.617 994.563 128.202 1001.95 145.317C1009.67 162.098 1013.52 184.08 1013.52 211.263V224.352H957.143Z" fill="white"/>
<path d="M704.324 353.223L566.895 0.839844H625.289L766.243 353.223H704.324ZM422.921 353.223L563.371 0.839844H622.269L484.84 353.223H422.921ZM488.867 266.637V214.787H699.793V266.637H488.867Z" fill="white"/>
</svg>
