<svg width="637" height="142" viewBox="0 0 637 142" fill="none" xmlns="http://www.w3.org/2000/svg">
<path d="M57.278 94.1087C52.8408 94.1087 48.4455 94.9831 44.3461 96.6812C40.2473 98.3791 36.5226 100.867 33.3854 104.004C30.2478 107.142 27.7582 110.868 26.0601 114.967C24.3623 119.066 23.4878 123.46 23.4877 127.897H0.963013C0.963084 120.502 2.4197 113.178 5.2497 106.346C8.07966 99.514 12.2275 93.3063 17.4563 88.0773C22.6856 82.848 28.8946 78.6986 35.727 75.8686C42.5592 73.0386 49.8829 71.5819 57.278 71.5819V94.1087Z" fill="#183132"/>
<path d="M113.595 60.3272C113.595 67.7224 112.139 75.0458 109.309 81.8782C106.478 88.7106 102.331 94.9196 97.1019 100.149C91.8726 105.378 85.6636 109.525 78.8312 112.355C71.9989 115.185 64.6755 116.642 57.2802 116.642V94.1153C61.7174 94.1153 66.1127 93.2431 70.2121 91.545C74.3113 89.847 78.0354 87.3572 81.1728 84.2197C84.3102 81.0823 86.8 77.3583 88.498 73.2591C90.1961 69.1597 91.0683 64.7644 91.0683 60.3272H113.595Z" fill="#183132"/>
<path d="M57.278 49.055C52.8408 49.055 48.4455 49.9294 44.3461 51.6275C40.2472 53.3254 36.5226 55.8134 33.3854 58.9505C30.2478 62.0881 27.7582 65.814 26.0601 69.9134C24.3623 74.0126 23.4877 78.4062 23.4877 82.8431H0.963013C0.963012 75.4478 2.41963 68.1245 5.2497 61.2921C8.07961 54.4602 12.2275 48.2526 17.4563 43.0236C22.6856 37.7943 28.8946 33.6449 35.727 30.8148C42.5593 27.9849 49.8828 26.5282 57.278 26.5282V49.055Z" fill="#183132"/>
<path d="M113.595 15.2734C113.595 22.6688 112.139 29.9921 109.309 36.8245C106.479 43.6564 102.331 49.864 97.1019 55.093C91.8726 60.3222 85.6636 64.4717 78.8312 67.3017C71.9989 70.1317 64.6754 71.5884 57.2802 71.5884V49.0616C61.7174 49.0616 66.1127 48.1871 70.2121 46.4891C74.3109 44.7911 78.0356 42.3032 81.1728 39.166C84.3103 36.0285 86.8 32.3026 88.498 28.2032C90.1959 24.104 91.0683 19.7104 91.0683 15.2734H113.595Z" fill="#183132"/>
<path d="M224.54 126.661L180.874 14.6965H199.428L244.214 126.661H224.54ZM135.128 126.661L179.754 14.6965H198.468L154.802 126.661H135.128ZM156.082 99.1498V82.675H223.101V99.1498H156.082ZM250.647 126.661V46.6864H267.442L268.561 61.4017V126.661H250.647ZM304.87 126.661V85.7141H322.784V126.661H304.87ZM304.87 85.7141C304.87 79.3161 304.123 74.411 302.63 70.9987C301.244 67.4798 299.218 65.0273 296.552 63.641C293.993 62.2548 290.954 61.5617 287.435 61.5617C281.464 61.4551 276.825 63.4278 273.52 67.4798C270.214 71.5319 268.561 77.3434 268.561 84.9143H261.843C261.843 76.4903 263.07 69.2926 265.522 63.3211C267.975 57.2431 271.494 52.6578 276.079 49.5655C280.664 46.3665 286.102 44.767 292.394 44.767C298.792 44.767 304.23 46.0466 308.709 48.6058C313.294 51.165 316.759 55.1637 319.105 60.602C321.558 65.9336 322.784 72.9181 322.784 81.5554V85.7141H304.87ZM371.801 128.581C364.017 128.581 357.086 126.821 351.008 123.302C345.036 119.677 340.291 114.718 336.772 108.427C333.36 102.136 331.654 94.8845 331.654 86.6738C331.654 78.463 333.413 71.212 336.932 64.9206C340.451 58.6293 345.25 53.7242 351.328 50.2053C357.512 46.5797 364.55 44.767 372.441 44.767C379.585 44.767 386.037 46.6331 391.795 50.3652C397.553 53.9907 402.085 59.2691 405.391 66.2002C408.803 73.1314 410.509 81.3954 410.509 90.9924H347.649L350.048 88.7531C350.048 93.6582 351.114 97.9235 353.247 101.549C355.38 105.068 358.205 107.787 361.724 109.706C365.243 111.626 369.135 112.586 373.401 112.586C378.306 112.586 382.358 111.519 385.557 109.387C388.756 107.147 391.262 104.268 393.074 100.749L408.909 107.467C406.67 111.733 403.791 115.465 400.272 118.664C396.86 121.863 392.755 124.315 387.956 126.021C383.264 127.727 377.879 128.581 371.801 128.581ZM351.168 79.476L348.608 77.2367H393.714L391.315 79.476C391.315 75.1041 390.355 71.5319 388.436 68.7594C386.517 65.8803 384.064 63.7477 381.078 62.3614C378.199 60.8686 375.16 60.1221 371.961 60.1221C368.762 60.1221 365.563 60.8686 362.364 62.3614C359.165 63.7477 356.499 65.8803 354.367 68.7594C352.234 71.5319 351.168 75.1041 351.168 79.476ZM419.431 126.661V46.6864H436.226L437.026 57.403C439.478 53.2443 442.624 50.0986 446.463 47.966C450.301 45.8333 454.673 44.767 459.578 44.767C465.976 44.767 471.415 46.2065 475.893 49.0856C480.372 51.9647 483.624 56.3367 485.65 62.2015C487.996 56.5499 491.302 52.2313 495.567 49.2456C499.832 46.2599 504.844 44.767 510.602 44.767C519.879 44.767 527.024 47.7527 532.036 53.7242C537.047 59.589 539.5 68.6528 539.393 80.9156V126.661H521.639V85.7141C521.639 79.3161 520.946 74.411 519.56 70.9987C518.173 67.4798 516.307 65.0273 513.961 63.641C511.615 62.2548 508.896 61.5617 505.804 61.5617C500.259 61.4551 495.94 63.4278 492.848 67.4798C489.862 71.5319 488.369 77.3434 488.369 84.9143V126.661H470.455V85.7141C470.455 79.3161 469.762 74.411 468.376 70.9987C467.096 67.4798 465.283 65.0273 462.937 63.641C460.591 62.2548 457.872 61.5617 454.78 61.5617C449.235 61.4551 444.916 63.4278 441.824 67.4798C438.838 71.5319 437.345 77.3434 437.345 84.9143V126.661H419.431ZM589.659 128.581C581.661 128.581 574.517 126.821 568.225 123.302C562.041 119.677 557.189 114.718 553.67 108.427C550.151 102.136 548.392 94.8845 548.392 86.6738C548.392 78.463 550.098 71.212 553.51 64.9206C557.029 58.6293 561.881 53.7242 568.065 50.2053C574.25 46.5797 581.341 44.767 589.339 44.767C597.336 44.767 604.427 46.5797 610.612 50.2053C616.797 53.7242 621.595 58.6293 625.007 64.9206C628.526 71.212 630.286 78.463 630.286 86.6738C630.286 94.8845 628.58 102.136 625.167 108.427C621.755 114.718 616.957 119.677 610.772 123.302C604.587 126.821 597.549 128.581 589.659 128.581ZM589.659 112.106C594.031 112.106 597.923 111.039 601.335 108.907C604.747 106.667 607.413 103.682 609.332 99.9496C611.252 96.1108 612.212 91.6855 612.212 86.6738C612.212 81.662 611.198 77.2901 609.172 73.5579C607.253 69.7191 604.587 66.7334 601.175 64.6007C597.763 62.3614 593.817 61.2418 589.339 61.2418C584.86 61.2418 580.915 62.3081 577.502 64.4408C574.09 66.5734 571.424 69.5592 569.505 73.398C567.586 77.2367 566.626 81.662 566.626 86.6738C566.626 91.6855 567.586 96.1108 569.505 99.9496C571.531 103.682 574.25 106.667 577.662 108.907C581.181 111.039 585.18 112.106 589.659 112.106Z" fill="#183132"/>
</svg>
