<svg width="696" height="696" viewBox="0 0 696 696" fill="none" xmlns="http://www.w3.org/2000/svg">
<path d="M347.677 486.555C320.301 486.555 293.183 491.95 267.891 502.426C242.602 512.902 219.622 528.253 200.266 547.608C180.908 566.966 165.548 589.953 155.071 615.246C144.596 640.537 139.2 667.644 139.2 695.019H0.228516C0.228955 649.393 9.21589 604.208 26.6762 562.055C44.1363 519.904 69.7273 481.604 101.988 449.343C134.251 417.08 172.559 391.479 214.713 374.018C256.866 356.558 302.051 347.57 347.677 347.57V486.555Z" fill="white"/>
<path d="M695.139 278.132C695.139 323.759 686.152 368.942 668.692 411.096C651.231 453.25 625.643 491.558 593.38 523.821C561.117 556.084 522.809 581.672 480.655 599.132C438.501 616.593 393.317 625.58 347.691 625.58V486.595C375.067 486.595 402.185 481.214 427.477 470.738C452.768 460.261 475.745 444.9 495.102 425.543C514.459 406.186 529.82 383.209 540.296 357.918C550.773 332.626 556.154 305.508 556.154 278.132H695.139Z" fill="white"/>
<path d="M347.677 208.586C320.301 208.586 293.183 213.98 267.891 224.457C242.602 234.933 219.622 250.283 200.266 269.638C180.908 288.996 165.548 311.984 155.071 337.276C144.596 362.567 139.2 389.675 139.2 417.049H0.228516C0.228514 371.422 9.21546 326.239 26.6762 284.085C44.136 241.934 69.7273 203.635 101.988 171.373C134.251 139.11 172.559 113.509 214.713 96.0485C256.866 78.5882 302.051 69.6008 347.677 69.6008V208.586Z" fill="white"/>
<path d="M695.139 0.162109C695.139 45.7893 686.152 90.9723 668.692 133.126C651.232 175.277 625.64 213.576 593.38 245.838C561.117 278.101 522.809 303.702 480.655 321.163C438.501 338.623 393.317 347.611 347.691 347.611V208.626C375.067 208.626 402.185 203.231 427.477 192.755C452.766 182.278 475.746 166.928 495.102 147.573C514.46 128.215 529.82 105.228 540.296 79.9352C550.772 54.6442 556.154 27.5367 556.154 0.162109H695.139Z" fill="white"/>
</svg>
